<svg width="24" height="24" viewBox="0 0 24 24" fill="none" xmlns="http://www.w3.org/2000/svg">
<path fill-rule="evenodd" clip-rule="evenodd" d="M12 16.1406C12.2652 16.1406 12.5196 16.246 12.7071 16.4335C12.8946 16.6211 13 16.8754 13 17.1406V20.9976C13 21.2628 12.8946 21.5172 12.7071 21.7047C12.5196 21.8923 12.2652 21.9976 12 21.9976C11.7348 21.9976 11.4804 21.8923 11.2929 21.7047C11.1054 21.5172 11 21.2628 11 20.9976V17.1406C11 16.8754 11.1054 16.6211 11.2929 16.4335C11.4804 16.246 11.7348 16.1406 12 16.1406Z" fill="#808A92"/>
<path fill-rule="evenodd" clip-rule="evenodd" d="M8.44676 4.223C8.44676 4.22967 8.44909 4.24067 8.45376 4.256C8.50376 4.426 8.57376 4.6 8.65176 4.766C8.91376 5.315 9.18176 6.012 9.18176 6.793V10.643C9.18176 11.673 8.73976 12.613 8.07276 13.309C7.58276 13.821 7.19976 14.288 6.90376 14.7C6.78976 14.86 6.77076 14.969 6.76876 15.021C6.76709 15.0787 6.78546 15.1353 6.82076 15.181C6.90976 15.307 7.17276 15.5 7.65076 15.5H12.6358C12.7671 15.5 12.8971 15.5259 13.0184 15.5761C13.1398 15.6264 13.25 15.7 13.3429 15.7929C13.4357 15.8858 13.5094 15.996 13.5596 16.1173C13.6099 16.2386 13.6358 16.3687 13.6358 16.5C13.6358 16.6313 13.6099 16.7614 13.5596 16.8827C13.5094 17.004 13.4357 17.1142 13.3429 17.2071C13.25 17.3 13.1398 17.3736 13.0184 17.4239C12.8971 17.4741 12.7671 17.5 12.6358 17.5H7.65176C6.66476 17.5 5.72176 17.097 5.18376 16.33C4.60376 15.503 4.62776 14.443 5.27876 13.535C5.63376 13.04 6.07876 12.5 6.62876 11.925C6.98676 11.552 7.18176 11.092 7.18176 10.643V6.793C7.18176 6.458 7.06376 6.083 6.84576 5.625C6.72151 5.3652 6.61786 5.09604 6.53576 4.82C6.27076 3.922 6.61676 3.14 7.19976 2.652C7.73576 2.204 8.45476 2 9.12376 2H12.6358C12.901 2 13.1553 2.10536 13.3429 2.29289C13.5304 2.48043 13.6358 2.73478 13.6358 3C13.6358 3.26522 13.5304 3.51957 13.3429 3.70711C13.1553 3.89464 12.901 4 12.6358 4H9.12376C8.82076 4 8.58776 4.099 8.48376 4.186C8.46986 4.19666 8.45742 4.2091 8.44676 4.223Z" fill="#808A92"/>
<path fill-rule="evenodd" clip-rule="evenodd" d="M15.5523 4.223C15.4988 4.40939 15.4299 4.59102 15.3463 4.766C15.0863 5.315 14.8173 6.012 14.8173 6.793V10.643C14.8173 11.673 15.2593 12.613 15.9263 13.309C16.4163 13.821 16.7993 14.288 17.0953 14.7C17.2093 14.86 17.2283 14.969 17.2303 15.021C17.232 15.0787 17.2136 15.1353 17.1783 15.181C17.0893 15.307 16.8263 15.5 16.3483 15.5H11.3633C11.232 15.5 11.1019 15.5259 10.9806 15.5761C10.8593 15.6264 10.749 15.7 10.6562 15.7929C10.5633 15.8858 10.4897 15.996 10.4394 16.1173C10.3891 16.2386 10.3633 16.3687 10.3633 16.5C10.3633 16.6313 10.3891 16.7614 10.4394 16.8827C10.4897 17.004 10.5633 17.1142 10.6562 17.2071C10.749 17.3 10.8593 17.3736 10.9806 17.4239C11.1019 17.4741 11.232 17.5 11.3633 17.5H16.3483C17.3343 17.5 18.2763 17.097 18.8153 16.33C19.3953 15.503 19.3713 14.443 18.7203 13.535C18.3653 13.04 17.9203 12.5 17.3703 11.925C17.0123 11.552 16.8173 11.092 16.8173 10.643V6.793C16.8173 6.458 16.9353 6.083 17.1523 5.625C17.2683 5.382 17.3783 5.11 17.4633 4.82C17.7283 3.922 17.3823 3.14 16.7993 2.652C16.2633 2.204 15.5443 2 14.8753 2H11.3633C11.0981 2 10.8437 2.10536 10.6562 2.29289C10.4686 2.48043 10.3633 2.73478 10.3633 3C10.3633 3.26522 10.4686 3.51957 10.6562 3.70711C10.8437 3.89464 11.0981 4 11.3633 4H14.8753C15.1783 4 15.4113 4.099 15.5153 4.186C15.5346 4.20333 15.5469 4.21567 15.5523 4.223Z" fill="#808A92"/>
</svg>
