<svg width="16" height="12" viewBox="0 0 16 12" fill="none" xmlns="http://www.w3.org/2000/svg">
<path d="M1.84667 11.8307C1.46278 11.8307 1.1425 11.7024 0.885833 11.4457C0.629167 11.1891 0.500556 10.8685 0.5 10.4841V1.51073C0.5 1.12684 0.628611 0.806562 0.885833 0.549896C1.14306 0.293229 1.46306 0.164618 1.84583 0.164062H14.1542C14.5375 0.164062 14.8575 0.292673 15.1142 0.549896C15.3708 0.807118 15.4994 1.1274 15.5 1.51073V10.4849C15.5 10.8682 15.3714 11.1885 15.1142 11.4457C14.8569 11.703 14.5369 11.8313 14.1542 11.8307H1.84667ZM1.84667 10.9974H14.1542C14.2819 10.9974 14.3994 10.9441 14.5067 10.8374C14.6139 10.7307 14.6672 10.613 14.6667 10.4841V2.66406H1.33333V10.4849C1.33333 10.6127 1.38667 10.7302 1.49333 10.8374C1.6 10.9446 1.7175 10.998 1.84583 10.9974M7.125 9.18073L4.74333 6.79906L5.34333 6.19906L7.125 7.98156L10.6575 4.44906L11.2567 5.04906L7.125 9.18073ZM1.84667 10.9974H1.33333V0.997396H1.84667C1.71833 0.997396 1.60056 1.05073 1.49333 1.1574C1.38611 1.26406 1.33278 1.38184 1.33333 1.51073V10.4849C1.33333 10.6127 1.38667 10.7302 1.49333 10.8374C1.6 10.9446 1.7175 10.998 1.84583 10.9974" fill="white"/>
</svg>
